<svg width="16" height="16" viewBox="0 0 16 16" fill="none" xmlns="http://www.w3.org/2000/svg">
<rect width="16" height="16" fill="white"/>
<path d="M14.3862 8.08846C14.3758 7.0679 14.4408 6.0467 14.355 5.02354C14.3037 4.35658 14.1132 3.69873 13.7466 3.1787C13.3234 2.59301 12.6857 2.03788 11.9336 1.95662C11.4877 1.91242 11.0801 1.73106 10.6205 1.76876C10.4242 1.77786 10.2311 1.75251 10.0374 1.72716C9.80406 1.70441 9.55902 1.75316 9.32046 1.73171C8.66586 1.69205 8.01062 1.6251 7.35538 1.65695C7.0115 1.60625 6.6611 1.6186 6.31594 1.60625C6.14238 1.59585 5.96818 1.5965 5.7959 1.6251C5.28694 1.71025 4.77598 1.80646 4.26702 1.90007C4.05314 1.93972 3.83538 1.98912 3.64102 2.08793C3.33875 2.24394 3.10213 2.50981 2.84016 2.72432C2.71276 2.83938 2.62565 2.98759 2.56195 3.1449C2.43259 3.45757 2.25318 3.75139 2.15632 4.07902C2.06141 4.4879 1.921 4.8883 1.8807 5.30498C1.7572 6.65382 1.60378 7.99942 1.63368 9.3567C1.63824 9.58942 1.59533 9.82214 1.60054 10.0509C1.63889 10.545 1.75264 11.0345 1.85145 11.5201C1.9132 11.8132 2.01396 12.0979 2.16347 12.3579C2.59315 13.0763 3.20419 13.9141 4.1253 13.9785C5.16474 14.078 6.19114 14.2983 7.23574 14.3451C7.83574 14.3607 8.4377 14.468 9.04094 14.3926C9.2041 14.3737 9.36658 14.3529 9.53106 14.3451C9.68902 14.3347 9.82618 14.3497 9.96462 14.338C10.2396 14.3107 10.5107 14.2164 10.785 14.1872C11.3564 14.1612 11.9388 14.1105 12.4673 13.8921C13.2253 13.6463 13.6159 13.1523 13.8805 12.4203C14.1711 11.7138 14.2445 10.9513 14.2582 10.192C14.2868 9.89886 14.3641 9.60894 14.3713 9.3125C14.3836 9.08822 14.3323 8.86266 14.3401 8.64362C14.3453 8.46226 14.3875 8.28218 14.3856 8.10082L14.3862 8.08846ZM13.4658 7.73226C13.4066 8.02346 13.3565 8.28934 13.3721 8.59162C13.2889 9.34826 13.3598 10.1185 13.2766 10.8733C13.2584 11.4447 13.2213 12.0862 12.7839 12.5081C12.5544 12.7343 12.308 12.9605 12.0123 13.0633C11.8218 13.1354 11.6157 13.1517 11.4142 13.1711C11.1854 13.1945 10.9637 13.2524 10.7369 13.2862C10.0049 13.398 9.27298 13.5371 8.52998 13.4617C8.02034 13.4461 7.51006 13.4403 7.00046 13.4201C6.46934 13.398 5.94154 13.372 5.41238 13.3311C4.95866 13.2921 4.49454 13.2667 4.08174 13.0704C2.93897 12.5244 2.72251 11.1378 2.6328 10.0041C2.5717 9.01674 2.50799 8.00918 2.64515 7.0289C2.75891 6.08438 2.88112 5.14182 3.11383 4.21486C3.22954 3.74424 3.61956 3.46602 3.99919 3.193C4.29238 2.97719 4.62714 2.83353 4.9697 2.71977C5.23558 2.61186 5.53006 2.63267 5.80762 2.60146C6.34326 2.50201 6.8867 2.44285 7.43142 2.43115C8.0483 2.42465 8.66714 2.43115 9.28146 2.48251C10.0127 2.57221 10.7369 2.70157 11.4721 2.76723C11.9577 2.80753 12.4315 2.99734 12.7202 3.41077C12.9132 3.66948 13.0874 3.94575 13.1823 4.25258C13.2499 4.4541 13.248 4.67382 13.2799 4.88442C13.3943 5.31606 13.3936 5.76134 13.4183 6.20466C13.4768 6.53098 13.432 6.8573 13.4482 7.1849C13.4599 7.36302 13.4846 7.5431 13.4671 7.72122L13.4658 7.73354V7.73226Z" fill="black"/>
<path d="M11.1069 7.19516C10.9438 6.46844 10.4426 5.87624 9.85562 5.45564C9.51498 5.2236 9.11002 5.07408 8.6927 5.00452C8.48662 4.97008 8.28838 4.89924 8.0927 4.90116C7.37766 4.94016 6.70486 5.234 6.14778 5.67732C5.94886 5.82164 5.80586 6.0108 5.6557 6.2058C5.54322 6.34688 5.42426 6.48856 5.34238 6.64588C5.2143 6.88576 5.14866 7.1516 5.09534 7.4162C5.03166 7.72692 4.97706 8.05776 5.00694 8.37628C5.1051 9.42808 5.8689 10.4967 6.84982 10.9108C7.12154 11.0441 7.38482 11.1279 7.67994 11.1338C8.28966 11.2618 8.92734 11.178 9.4565 10.8374C9.78346 10.6268 10.1403 10.435 10.4081 10.1464C10.9295 9.55352 11.2057 8.83524 11.2369 8.02592C11.2682 7.73796 11.1993 7.48836 11.1109 7.20752L11.1076 7.19452L11.1069 7.19516ZM10.1884 8.51412C10.0292 9.01596 9.65734 9.6946 9.17242 9.94876C8.81358 10.1236 8.40994 10.2068 8.01534 10.2562C7.66106 10.2478 7.27494 10.2003 6.98502 10.0105C6.87322 9.9364 6.77182 9.84864 6.67042 9.76024C5.81626 9.09524 5.63358 7.8426 6.11006 6.9072C6.19718 6.72388 6.34538 6.58152 6.50918 6.46516C6.88818 6.1902 7.27234 5.94124 7.72802 5.86584C8.06474 5.80148 8.39626 5.90352 8.73038 5.94384C9.22118 6.01728 9.52866 6.37156 9.80558 6.74276C10.1865 7.22312 10.3633 7.90568 10.1923 8.5024L10.1891 8.51476L10.1884 8.51412Z" fill="black"/>
<path d="M12.0904 4.72376C11.9448 5.33804 11.5964 5.5064 11.0152 5.25872C10.5901 5.0832 10.4854 4.58332 10.7884 4.24596C10.9938 4.01584 11.2804 3.74023 11.6165 3.87934C11.7082 3.92354 11.7764 4.00024 11.8512 4.06784C12.0423 4.23036 12.1716 4.45656 12.093 4.71076L12.0898 4.72308L12.0904 4.72376Z" fill="black"/>
</svg>
