<svg width="15" height="15" viewBox="0 0 15 15" fill="none" xmlns="http://www.w3.org/2000/svg">
<path d="M13.4988 4.33747C13.4895 4.13122 13.4419 3.91567 13.4687 3.70653C13.5093 3.44831 13.5012 3.19243 13.446 2.93421C13.3136 1.99424 12.5592 1.46261 11.6358 1.58588C11.0568 1.62619 10.4976 1.6256 9.92261 1.58705C9.38831 1.5812 8.85345 1.57828 8.31919 1.54323C8.07293 1.52571 7.81916 1.57011 7.57988 1.56602C6.97009 1.53564 6.34871 1.50234 5.73776 1.5C5.32778 1.52863 4.91486 1.48656 4.50833 1.54791C3.97286 1.55082 3.42408 1.43106 2.89909 1.58237C2.20335 1.70213 1.6168 2.24369 1.67255 2.98562C1.67894 3.27597 1.62784 3.56282 1.61332 3.85256C1.63945 4.25509 1.62145 4.65878 1.62029 5.0607C1.62609 5.21434 1.65106 5.36857 1.6499 5.52221C1.64758 5.7372 1.54653 5.93584 1.56163 6.14966C1.5988 6.75431 1.5866 7.36421 1.56686 7.97235C1.5715 8.37431 1.59415 8.7774 1.58254 9.17584C1.59473 9.61515 1.53085 10.0504 1.50007 10.4868C1.49775 10.943 1.55408 11.4028 1.64874 11.8497C1.68765 12.0933 1.69114 12.3603 1.834 12.5718C1.95944 12.7768 2.18012 12.9287 2.37177 13.0836C2.49314 13.1799 2.618 13.2787 2.76668 13.3272C3.18946 13.423 3.63663 13.3435 4.06639 13.3891C4.49265 13.4259 4.91194 13.4493 5.33936 13.4294C6.21746 13.4925 7.1031 13.4685 7.98525 13.4557C8.71061 13.4253 9.43886 13.5141 10.1642 13.4504C10.846 13.4423 11.5423 13.5813 12.2119 13.4265C12.6399 13.2617 13.0923 12.9842 13.2503 12.5256C13.3386 12.2674 13.3525 11.9917 13.3699 11.7212C13.4234 10.8875 13.4257 10.0562 13.3891 9.22432C13.4425 8.66524 13.4239 8.09445 13.4518 7.53131C13.5087 6.4692 13.4442 5.40364 13.5 4.34681V4.33571L13.4988 4.33747ZM3.53732 4.54601C3.535 4.33804 3.56346 4.12305 3.68309 3.95074C3.90784 3.61422 4.38926 3.40566 4.74413 3.61831C5.2848 3.87712 5.39629 4.68566 4.98338 5.09985C4.89221 5.19566 4.7685 5.23714 4.63725 5.24415C4.38173 5.24415 4.06579 5.32654 3.85091 5.16529C3.68135 5.00696 3.53558 4.79258 3.53732 4.55595V4.54545V4.54601ZM5.2476 7.02945C5.24183 7.10599 5.22034 7.18136 5.20406 7.25674C5.14425 7.5354 5.20811 7.8234 5.19653 8.10615C5.16979 8.86095 5.15006 9.6204 5.17909 10.3764C5.19011 10.6556 5.2023 10.9372 5.2122 11.2164C5.23718 11.484 5.0943 11.6727 4.8225 11.6972C4.51586 11.7282 4.2075 11.7294 3.89854 11.6931C3.82073 11.6832 3.73884 11.6569 3.68599 11.6014C3.57217 11.4781 3.58901 11.2579 3.58495 11.0937C3.59133 10.7742 3.60701 10.44 3.57798 10.1205C3.5623 9.95107 3.59249 9.78338 3.58611 9.61399C3.52571 9.05314 3.517 8.48471 3.49609 7.92038C3.5048 7.54414 3.55126 7.16794 3.56288 6.79054C3.58378 6.58781 3.52803 6.26299 3.77138 6.18997C4.16104 6.14032 4.55306 6.15607 4.95956 6.13504C5.16049 6.13039 5.2302 6.24896 5.21393 6.45169C5.19244 6.64331 5.25285 6.82969 5.24876 7.02011V7.03065L5.2476 7.02945ZM11.6875 10.3542C11.6614 10.6392 11.6776 10.9372 11.6579 11.2234C11.6579 11.3835 11.5481 11.5109 11.3873 11.5237C11.0278 11.5798 10.6648 11.5278 10.2943 11.543C10.1508 11.557 10.0335 11.5091 10.0364 11.3438C10.0289 10.7292 10.0707 10.1088 9.95164 9.50062C9.92378 9.35692 9.9255 9.21146 9.9348 9.066C9.95396 8.7669 9.85815 8.47421 9.85118 8.178C9.84248 8.00333 9.85118 7.79711 9.73388 7.65806C9.3744 7.31865 8.86391 7.23394 8.44463 7.51845C7.85749 7.8783 7.99223 8.66932 7.9359 9.26227C7.93879 9.47786 7.89814 9.6876 7.88186 9.90023C7.94051 10.3974 7.88884 10.9156 7.8993 11.4151C7.90684 11.5699 7.77791 11.6458 7.63736 11.6447C7.2657 11.6721 6.90911 11.7001 6.55024 11.7259C6.48866 11.7294 6.41723 11.7241 6.3696 11.6914C6.3162 11.6581 6.29993 11.5757 6.30281 11.5068C6.30746 11.3759 6.32374 11.2386 6.31736 11.1037C6.26858 10.5341 6.23374 9.96915 6.26798 9.39431C6.28133 8.85278 6.25928 8.31004 6.21514 7.77083C6.26858 7.28066 6.23546 6.78409 6.21803 6.28988C6.21398 6.1479 6.30458 6.08014 6.4329 6.07196C6.87488 6.02288 7.53518 6.04215 7.86968 6.11404C8.06771 6.15083 7.91265 6.30915 7.89233 6.48442C7.88828 6.51829 7.88651 6.55628 7.89116 6.58898C7.90219 6.714 8.00036 6.73095 8.08339 6.65209C8.32208 6.40905 8.59969 6.15491 8.93359 6.04744C9.47254 5.85465 10.1096 5.86459 10.5423 6.28403C11.1468 6.7257 11.2026 6.79579 11.515 7.48748C11.7467 7.93031 11.7508 8.42336 11.7009 8.90475C11.6898 9.14194 11.6956 9.38614 11.6794 9.62801C11.6799 9.87394 11.7409 10.103 11.6904 10.3425L11.6892 10.3536L11.6875 10.3542Z" fill="black"/>
</svg>
