<svg width="13" height="13" viewBox="0 0 13 13" fill="none" xmlns="http://www.w3.org/2000/svg">
<path d="M12.7861 6.48836C12.7757 5.4678 12.8407 4.4466 12.7549 3.42344C12.7036 2.75648 12.5131 2.09864 12.1465 1.5786C11.7233 0.992916 11.0856 0.437781 10.3335 0.356525C9.8876 0.312321 9.48 0.13096 9.02044 0.16866C8.82412 0.17776 8.63104 0.152412 8.43732 0.12706C8.20396 0.104308 7.95892 0.153061 7.72036 0.131609C7.06576 0.0919565 6.41052 0.0250004 5.75528 0.0568524C5.4114 0.00615244 5.061 0.0185004 4.71584 0.00615245C4.54228 -0.00425155 4.36808 -0.00359951 4.1958 0.0250005C3.68684 0.110156 3.17588 0.206364 2.66692 0.299968C2.45304 0.339624 2.23528 0.389025 2.04092 0.487833C1.73865 0.643845 1.50203 0.909709 1.24007 1.12422C1.11266 1.23928 1.02555 1.38749 0.961851 1.5448C0.832491 1.85747 0.653079 2.15129 0.556223 2.47892C0.461315 2.8878 0.320907 3.2882 0.280607 3.70488C0.157099 5.05372 0.00368669 6.39932 0.0335867 7.7566C0.0381387 7.98932 -0.00476531 8.22204 0.000438689 8.45084C0.0387907 8.94488 0.152547 9.43436 0.251355 9.91996C0.313107 10.2131 0.413863 10.4978 0.563375 10.7578C0.993051 11.4762 1.60409 12.314 2.5252 12.3784C3.56464 12.4779 4.59104 12.6982 5.63564 12.745C6.23564 12.7606 6.8376 12.8679 7.44084 12.7925C7.604 12.7736 7.76648 12.7528 7.93096 12.745C8.08892 12.7346 8.22608 12.7496 8.36452 12.7379C8.63952 12.7106 8.91056 12.6163 9.18488 12.5871C9.75628 12.5611 10.3387 12.5104 10.8672 12.292C11.6252 12.0462 12.0158 11.5522 12.2804 10.8202C12.571 10.1137 12.6444 9.35116 12.6581 8.59192C12.6867 8.29876 12.764 8.00884 12.7712 7.7124C12.7835 7.48812 12.7322 7.26256 12.74 7.04352C12.7452 6.86216 12.7874 6.68208 12.7855 6.50072L12.7861 6.48836ZM11.8657 6.13216C11.8065 6.42336 11.7564 6.68924 11.772 6.99152C11.6888 7.74816 11.7597 8.51844 11.6765 9.27316C11.6583 9.84456 11.6212 10.4861 11.1838 10.908C10.9543 11.1342 10.7079 11.3604 10.4122 11.4632C10.2217 11.5353 10.0156 11.5516 9.81412 11.571C9.58532 11.5944 9.36364 11.6523 9.1368 11.6861C8.40484 11.7979 7.67288 11.937 6.92988 11.8616C6.42024 11.846 5.90996 11.8402 5.40036 11.82C4.86924 11.7979 4.34144 11.7719 3.81228 11.731C3.35856 11.692 2.89444 11.6666 2.48164 11.4703C1.33887 10.9243 1.12241 9.53772 1.0327 8.40404C0.971599 7.41664 0.907895 6.40908 1.04505 5.4288C1.15881 4.48428 1.28102 3.54172 1.51373 2.61476C1.62944 2.14414 2.01947 1.86592 2.39909 1.5929C2.69228 1.37709 3.02704 1.23343 3.3696 1.11967C3.63548 1.01176 3.92996 1.03257 4.20752 1.00136C4.74316 0.901908 5.2866 0.842757 5.83132 0.831057C6.4482 0.824557 7.06704 0.831056 7.68136 0.882408C8.41264 0.972112 9.1368 1.10147 9.872 1.16713C10.3576 1.20743 10.8314 1.39724 11.1201 1.81067C11.3131 2.06938 11.4873 2.34565 11.5822 2.65248C11.6498 2.854 11.6479 3.07372 11.6798 3.28432C11.7942 3.71596 11.7935 4.16124 11.8182 4.60456C11.8767 4.93088 11.8319 5.2572 11.8481 5.5848C11.8598 5.76292 11.8845 5.943 11.867 6.12112L11.8657 6.13344V6.13216Z" fill="white"/>
</svg>
